<?xml version="1.0" encoding="UTF-8"?> <svg xmlns="http://www.w3.org/2000/svg" width="124" height="48" viewBox="0 0 124 48" fill="none"><path d="M31.0684 23.9311C31.0684 21.7392 29.3954 20.0005 27.1813 20.0005C24.8649 20.0005 23.2927 21.8001 23.2927 23.9311C23.2927 26.0817 24.8227 27.9047 27.1164 27.9047C29.6845 27.9047 31.0472 25.8949 31.0684 23.9531V23.9311ZM21.2233 14.272H23.3755V20.1266C24.4102 18.6566 26.0636 18.0181 27.5093 17.9946C30.4284 17.9946 33.2174 20.1656 33.2174 23.9109C33.2174 27.531 30.6557 29.9085 27.4266 29.9085C25.5083 29.9085 24.0172 28.9791 23.2927 27.6327V29.5766H21.2233V14.272Z" fill="#FAFAFA"></path><path d="M39.0895 18.419H41.115V20.0714C41.7535 18.7481 42.9327 18.1095 44.466 18.0859V20.2382H44.3182C42.2927 20.2382 41.2385 21.3544 41.2385 23.5888V29.6682H39.0895V18.419Z" fill="#FAFAFA"></path><path d="M50.0248 15.4274C50.0248 16.2164 50.6617 16.8548 51.451 16.8548C52.2372 16.8548 52.874 16.2164 52.874 15.4274C52.874 14.641 52.2372 14 51.451 14C50.6617 14 50.0248 14.641 50.0248 15.4274ZM50.4796 18.3985H52.6288V29.6477H50.4796V18.3985Z" fill="#00AEEF"></path><path d="M58.7111 20.0006H56.684V18.3276H58.7111V14.272H60.8601V18.3276H63.0319V20.0006H60.8601V29.5769H58.7111V20.0006Z" fill="#00AEEF"></path><path d="M76.4753 23.0525C76.3711 21.56 74.8832 19.8848 72.7552 19.9254C70.5591 19.9254 69.1364 21.521 69.0323 23.0525H76.4753ZM68.9901 24.7279C69.0907 27.0009 71.0788 28.1595 72.775 28.1595C74.2821 28.1595 75.3996 27.4342 76.0203 26.2569H78.2522C77.716 27.5007 76.9295 28.43 75.9779 29.0514C75.026 29.687 73.9087 30 72.775 30C69.0907 30 66.8232 27.0432 66.8232 24.0607C66.8232 20.8386 69.3411 18.0859 72.7552 18.0859C74.3635 18.0859 75.8351 18.6857 76.9106 19.7427C78.2326 21.0864 78.788 22.8454 78.606 24.7279H68.9901Z" fill="#FAFAFA"></path><path d="M84.7667 18.4193H86.794V20.1541C87.3329 18.9971 88.5902 18.0659 90.598 18.0863C94.1945 18.1286 95.1493 20.735 95.1493 23.073V29.6685H92.9762V23.5688C92.9762 21.54 92.1867 20.0923 89.9972 20.1165C87.8888 20.1339 86.9204 21.4588 86.9204 23.4021V29.6685H84.7667V18.4193Z" fill="#FAFAFA"></path><path d="M110.838 23.0525C110.74 21.56 109.246 19.8848 107.118 19.9254C104.926 19.9254 103.499 21.521 103.395 23.0525H110.838ZM103.356 24.7279C103.46 27.0009 105.445 28.1595 107.138 28.1595C108.648 28.1595 109.766 27.4342 110.386 26.2569H112.618C112.082 27.5007 111.293 28.43 110.348 29.0514C109.396 29.687 108.278 30 107.138 30C103.46 30 101.186 27.0432 101.186 24.0607C101.186 20.8386 103.71 18.0859 107.118 18.0859C108.733 18.0859 110.201 18.6857 111.277 19.7427C112.599 21.0864 113.161 22.8454 112.972 24.7279H103.356Z" fill="#FAFAFA"></path><path d="M118.879 20.0006H116.852V18.3276H118.879V14.272H121.033V18.3276H123.2V20.0006H121.033V29.5769H118.879V20.0006Z" fill="#FAFAFA"></path><path d="M0 22.1276C0 26.3162 3.39124 29.7124 7.57702 29.7124C11.7656 29.7124 15.1539 26.3162 15.1539 22.1276C15.1539 17.9413 11.7656 14.5449 7.57702 14.5449C3.39124 14.5449 0 17.9413 0 22.1276Z" fill="#00AEEF"></path></svg> 