<?xml version="1.0" encoding="UTF-8"?> <svg xmlns="http://www.w3.org/2000/svg" xmlns:xlink="http://www.w3.org/1999/xlink" version="1.1" id="Warstwa_2" x="0px" y="0px" viewBox="0 0 425.6 159.7" style="enable-background:new 0 0 425.6 159.7;" xml:space="preserve"> <style type="text/css"> .st0{fill:none;} .st1{fill:#FFFFFF;} .st2{fill-rule:evenodd;clip-rule:evenodd;fill:#FFFFFF;} </style> <g id="Logo"> <g id="CLAIM"> <path class="st0" d="M193.7,114.1c-2.5,0-4.2,1.8-4.2,4.3c0,2.5,1.8,4.3,4.2,4.3c2.5,0,4.2-1.8,4.2-4.3 C197.9,115.9,196.2,114.1,193.7,114.1z"></path> <path class="st0" d="M131.4,114.1c-2.5,0-4.2,1.8-4.2,4.3c0,2.5,1.8,4.3,4.2,4.3c2.5,0,4.2-1.8,4.2-4.3 C135.7,115.9,133.9,114.1,131.4,114.1z"></path> <path class="st0" d="M146,114.1c-2.1,0-3.7,1.4-4,3.4h8.1C149.6,115.4,148.1,114.1,146,114.1z"></path> <path class="st0" d="M208.4,114.1c-2.5,0-4.2,1.8-4.2,4.3c0,2.5,1.8,4.3,4.2,4.3c2.5,0,4.2-1.7,4.2-4.3 C212.6,115.9,210.9,114.1,208.4,114.1z"></path> <path class="st0" d="M270.6,114.1c-2.1,0-3.7,1.4-4,3.4h8.1C274.3,115.4,272.7,114.1,270.6,114.1z"></path> <path class="st1" d="M131.7,112.4c-1.8,0-3.4,0.7-4.4,1.9v-6.5h-1.9v16.4h1.5l0.2-1.8c1,1.3,2.6,2.1,4.5,2.1 c3.4,0,5.9-2.6,5.9-6.1C137.5,114.9,135.1,112.4,131.7,112.4z M131.4,122.7c-2.5,0-4.2-1.8-4.2-4.3c0-2.5,1.8-4.3,4.2-4.3 c2.5,0,4.2,1.8,4.2,4.3C135.7,120.9,133.9,122.7,131.4,122.7z"></path> <path class="st1" d="M146,112.4c-3.5,0-5.9,2.5-5.9,6c0,3.6,2.4,6.1,5.9,6.1c2.6,0,4.7-1.4,5.7-3.6h-2.1c-0.7,1.2-2,1.9-3.5,1.9 c-2.2,0-3.7-1.4-4-3.5h10C152,115.1,149.7,112.4,146,112.4z M146,114.1c2.1,0,3.7,1.3,4.1,3.4H142 C142.3,115.5,143.9,114.1,146,114.1z"></path> <rect x="161.2" y="108.6" class="st1" width="2" height="15.5"></rect> <polygon class="st1" points="166.4,110.5 171.7,110.5 171.7,124.2 173.6,124.2 173.6,110.5 178.9,110.5 178.9,108.6 166.4,108.6 "></polygon> <path class="st1" d="M193.9,112.4c-1.9,0-3.5,0.8-4.5,2.1l-0.2-1.8h-1.5v15.9h1.9v-6.1c1,1.2,2.6,1.9,4.4,1.9 c3.4,0,5.9-2.6,5.9-6.1C199.8,114.9,197.3,112.4,193.9,112.4z M193.7,122.7c-2.5,0-4.2-1.8-4.2-4.3c0-2.5,1.8-4.3,4.2-4.3 c2.5,0,4.2,1.8,4.2,4.3C197.9,120.9,196.2,122.7,193.7,122.7z"></path> <path class="st1" d="M208.4,112.4c-3.6,0-6.1,2.5-6.1,6c0,3.5,2.5,6.1,6.1,6.1c3.6,0,6.1-2.5,6.1-6.1 C214.5,114.9,212,112.4,208.4,112.4z M208.4,122.7c-2.5,0-4.2-1.7-4.2-4.3c0-2.5,1.8-4.3,4.2-4.3c2.5,0,4.2,1.8,4.2,4.3 C212.6,120.9,210.9,122.7,208.4,122.7z"></path> <path class="st1" d="M222.4,117.6c-2.4-0.5-3.2-0.9-3.2-1.9c0-1,1-1.6,2.6-1.6c1.8,0,2.8,0.7,2.9,2h1.8c-0.2-2.3-2-3.6-4.8-3.6 c-2.8,0-4.5,1.2-4.5,3.3c0,1.8,1.4,2.9,4.4,3.4c2.2,0.4,3.3,1,3.3,2c0,1-1.1,1.7-2.8,1.7c-2,0-3.1-0.8-3.2-2.2h-1.8 c0,2.4,2,3.9,5,3.9c2.8,0,4.7-1.3,4.7-3.3C226.8,119.3,225.3,118.1,222.4,117.6z"></path> <rect x="230.3" y="112.7" class="st1" width="1.9" height="11.5"></rect> <path class="st1" d="M231.2,107.8c-0.9,0-1.5,0.6-1.5,1.5c0,0.8,0.6,1.4,1.5,1.4c0.9,0,1.5-0.6,1.5-1.4 C232.7,108.5,232.1,107.8,231.2,107.8z"></path> <path class="st1" d="M239.3,119.9v-5.6h3.7v-1.7h-3.7v-2.9h-1.4l-0.2,1.6c-0.1,1-0.4,1.3-1.5,1.3H235v1.7h2.4v5.7 c0,2.6,1.5,4.1,4,4.1h1.7v-1.8h-1.6C240,122.4,239.3,121.6,239.3,119.9z"></path> <path class="st1" d="M247.5,107.8c-0.9,0-1.5,0.6-1.5,1.5c0,0.8,0.6,1.4,1.5,1.4c0.9,0,1.5-0.6,1.5-1.4 C249,108.5,248.4,107.8,247.5,107.8z"></path> <rect x="246.6" y="112.7" class="st1" width="1.9" height="11.5"></rect> <polygon class="st1" points="259.3,116.3 257,121.7 254.7,116.3 253.1,112.7 251.1,112.7 256.1,124.2 257.9,124.2 263,112.7 260.9,112.7 "></polygon> <path class="st1" d="M270.6,122.7c-2.2,0-3.8-1.4-4-3.5h10c0.1-4-2.2-6.8-5.9-6.8c-3.5,0-5.9,2.5-5.9,6c0,3.6,2.4,6.1,5.9,6.1 c2.6,0,4.7-1.4,5.7-3.6h-2.1C273.4,122,272.1,122.7,270.6,122.7z M270.6,114.1c2.1,0,3.7,1.3,4.1,3.4h-8.1 C266.9,115.5,268.5,114.1,270.6,114.1z"></path> </g> <path id="SYMBOL" class="st1" d="M60.3,35.5l0,19.8l21.4,0.1c1.1,0,2.2,0.4,2.9,1.2c0.8,0.8,1.2,1.9,1.2,2.9l0,12.9 c0,7.8-6.3,14.1-14.1,14.1l-2.1,0c-3.7,0.1-7.3-1.5-9.9-4.1c-2.7-2.6-4.2-6.2-4.2-9.9l0-36.7l-20.2,0l0,36.7 c0,9.1,3.7,17.8,10.1,24.2s15.2,10,24.2,10l2.1,0c18.9,0,34.3-15.4,34.3-34.3l0.1-12.8c-0.1-6.4-2.6-12.2-7.2-16.7 c-4.6-4.6-10.8-7.1-17.3-7.1L60.3,35.5z"></path> <path id="LOGOTYPE" class="st2" d="M125.5,94.5V46.8h21.4c9.7,0,15.9,5,15.9,12.8c0,4.5-2.1,8.2-5.7,10.4c4.5,2,7.2,6.1,7.2,11.2 c0,8-6.6,13.4-16.3,13.4H125.5z M136.2,85.9h10.1c4.3,0,6.8-2.1,6.8-5.7c0-3.6-2.5-5.7-6.8-5.7h-10.1V85.9z M136.2,66.2h9 c4.2,0,6.5-2,6.5-5.5c0-3.5-2.3-5.4-6.5-5.4h-9V66.2z M168.6,94.5V58.7h7.7l1.4,4.8c2.3-3.3,5.7-4.8,10.9-4.8h3.9v9.4h-4 c-5.9,0-9.6,2.9-9.6,10.6v15.8H168.6z M196.6,94.5V58.7H207v35.8H196.6z M195.1,47.1c0-3.8,2.7-6.5,6.7-6.5c4,0,6.7,2.7,6.7,6.5 s-2.7,6.5-6.7,6.5C197.8,53.6,195.1,50.9,195.1,47.1z M231.2,94.5c-9.1,0-14.1-4.8-14.1-13.6V67.2h-7v-8.5h3.2c3.9,0,4.9-1,5.5-4.6 l0.6-4.6h8.1v9.3h9.8v8.5h-9.8v12.2c0,4.2,1.9,6.1,6,6.1h4.3v9H231.2z M259.4,95.4c-11.5,0-19.5-7.7-19.5-18.9 c0-11.1,8-18.8,19.6-18.8c12.3,0,20.1,8.7,19.5,21.8h-28.8c1,4.9,4.6,7.6,9.4,7.6c3.4,0,6.5-1.4,8.2-3.7h10.5 C275.1,90.9,268.2,95.4,259.4,95.4z M250.3,73h18.6c-1.2-4.4-4.6-7-9.4-7C255,66,251.4,68.7,250.3,73z M283.3,94.5V58.7h7.7l1.1,4 c2.9-3.3,7.2-5,12-5c9.4,0,15,6.3,15,16.2v20.6h-10.4V75c0-5.2-2.7-8.4-7.1-8.4c-4.8,0-7.9,3.5-7.9,9.1v18.7H283.3z M342.3,95.4 c-11.5,0-19.5-7.7-19.5-18.9c0-11.1,8-18.8,19.6-18.8c12.3,0,20.1,8.7,19.5,21.8h-28.8c1,4.9,4.6,7.6,9.4,7.6 c3.4,0,6.5-1.4,8.2-3.7h10.5C358.1,90.9,351.2,95.4,342.3,95.4z M333.3,73h18.6c-1.2-4.4-4.6-7-9.4-7C338,66,334.4,68.7,333.3,73z M383.6,94.5c-9.1,0-14.1-4.8-14.1-13.6V67.2h-7v-8.5h3.2c3.9,0,4.9-1,5.5-4.6l0.6-4.6h8.1v9.3h9.8v8.5h-9.8v12.2 c0,4.2,1.9,6.1,6,6.1h4.3v9H383.6z"></path> </g> </svg> 